<mxfile host="Electron" agent="Mozilla/5.0 (Windows NT 10.0; Win64; x64) AppleWebKit/537.36 (KHTML, like Gecko) draw.io/26.0.16 Chrome/132.0.6834.196 Electron/34.2.0 Safari/537.36" version="26.0.16">
  <diagram name="InventorySystemPresentationLayer" id="vO0fdYKwgCNTsvaqT1Yp">
    <mxGraphModel dx="1219" dy="1813" grid="1" gridSize="10" guides="1" tooltips="1" connect="1" arrows="1" fold="1" page="1" pageScale="1" pageWidth="850" pageHeight="1100" math="0" shadow="0">
      <root>
        <mxCell id="0" />
        <mxCell id="1" parent="0" />
        <mxCell id="me6JieNg6hZvQKu8xH20-16" style="edgeStyle=orthogonalEdgeStyle;rounded=0;orthogonalLoop=1;jettySize=auto;html=1;" parent="1" source="me6JieNg6hZvQKu8xH20-1" target="me6JieNg6hZvQKu8xH20-17" edge="1">
          <mxGeometry relative="1" as="geometry">
            <mxPoint x="980" y="-950" as="targetPoint" />
          </mxGeometry>
        </mxCell>
        <mxCell id="me6JieNg6hZvQKu8xH20-1" value="Inventory System&lt;div&gt;Presentation Layer&lt;/div&gt;" style="rounded=0;whiteSpace=wrap;html=1;" parent="1" vertex="1">
          <mxGeometry x="870" y="-1060" width="220" height="60" as="geometry" />
        </mxCell>
        <mxCell id="me6JieNg6hZvQKu8xH20-8" style="edgeStyle=orthogonalEdgeStyle;rounded=0;orthogonalLoop=1;jettySize=auto;html=1;" parent="1" target="me6JieNg6hZvQKu8xH20-9" edge="1">
          <mxGeometry relative="1" as="geometry">
            <mxPoint x="980" y="-650" as="targetPoint" />
            <mxPoint x="980" y="-689" as="sourcePoint" />
            <Array as="points">
              <mxPoint x="980" y="-760" />
              <mxPoint x="981" y="-760" />
              <mxPoint x="981" y="-689" />
              <mxPoint x="980" y="-689" />
            </Array>
          </mxGeometry>
        </mxCell>
        <mxCell id="me6JieNg6hZvQKu8xH20-2" value="frmEmployees" style="rounded=0;whiteSpace=wrap;html=1;" parent="1" vertex="1">
          <mxGeometry x="920" y="-820" width="120" height="60" as="geometry" />
        </mxCell>
        <mxCell id="me6JieNg6hZvQKu8xH20-5" value="frmProducts" style="rounded=0;whiteSpace=wrap;html=1;" parent="1" vertex="1">
          <mxGeometry x="1120" y="-820" width="120" height="60" as="geometry" />
        </mxCell>
        <mxCell id="me6JieNg6hZvQKu8xH20-7" value="frmSuppliers" style="rounded=0;whiteSpace=wrap;html=1;" parent="1" vertex="1">
          <mxGeometry x="700" y="-820" width="120" height="60" as="geometry" />
        </mxCell>
        <mxCell id="me6JieNg6hZvQKu8xH20-10" style="edgeStyle=orthogonalEdgeStyle;rounded=0;orthogonalLoop=1;jettySize=auto;html=1;" parent="1" source="me6JieNg6hZvQKu8xH20-9" target="me6JieNg6hZvQKu8xH20-11" edge="1">
          <mxGeometry relative="1" as="geometry">
            <mxPoint x="980" y="-550" as="targetPoint" />
          </mxGeometry>
        </mxCell>
        <mxCell id="me6JieNg6hZvQKu8xH20-9" value="frmListEmployees" style="rounded=0;whiteSpace=wrap;html=1;" parent="1" vertex="1">
          <mxGeometry x="920" y="-700" width="120" height="60" as="geometry" />
        </mxCell>
        <mxCell id="me6JieNg6hZvQKu8xH20-13" value="" style="edgeStyle=orthogonalEdgeStyle;rounded=0;orthogonalLoop=1;jettySize=auto;html=1;" parent="1" source="me6JieNg6hZvQKu8xH20-11" target="me6JieNg6hZvQKu8xH20-12" edge="1">
          <mxGeometry relative="1" as="geometry" />
        </mxCell>
        <mxCell id="me6JieNg6hZvQKu8xH20-14" style="edgeStyle=orthogonalEdgeStyle;rounded=0;orthogonalLoop=1;jettySize=auto;html=1;" parent="1" source="me6JieNg6hZvQKu8xH20-11" target="me6JieNg6hZvQKu8xH20-15" edge="1">
          <mxGeometry relative="1" as="geometry">
            <mxPoint x="1180" y="-440" as="targetPoint" />
          </mxGeometry>
        </mxCell>
        <mxCell id="me6JieNg6hZvQKu8xH20-11" value="frmEmployeeInfo" style="rounded=0;whiteSpace=wrap;html=1;" parent="1" vertex="1">
          <mxGeometry x="920" y="-580" width="120" height="60" as="geometry" />
        </mxCell>
        <mxCell id="me6JieNg6hZvQKu8xH20-25" style="edgeStyle=orthogonalEdgeStyle;rounded=0;orthogonalLoop=1;jettySize=auto;html=1;" parent="1" source="me6JieNg6hZvQKu8xH20-12" target="me6JieNg6hZvQKu8xH20-26" edge="1">
          <mxGeometry relative="1" as="geometry">
            <mxPoint x="790" y="-360" as="targetPoint" />
          </mxGeometry>
        </mxCell>
        <mxCell id="me6JieNg6hZvQKu8xH20-12" value="frmEditPerson" style="whiteSpace=wrap;html=1;rounded=0;" parent="1" vertex="1">
          <mxGeometry x="730" y="-470" width="120" height="60" as="geometry" />
        </mxCell>
        <mxCell id="me6JieNg6hZvQKu8xH20-28" value="" style="edgeStyle=orthogonalEdgeStyle;rounded=0;orthogonalLoop=1;jettySize=auto;html=1;" parent="1" source="me6JieNg6hZvQKu8xH20-15" target="me6JieNg6hZvQKu8xH20-27" edge="1">
          <mxGeometry relative="1" as="geometry">
            <Array as="points">
              <mxPoint x="1175" y="-370" />
              <mxPoint x="1175" y="-370" />
            </Array>
          </mxGeometry>
        </mxCell>
        <mxCell id="tuWmfdLi9T188f7XkB6p-7" style="edgeStyle=orthogonalEdgeStyle;rounded=0;orthogonalLoop=1;jettySize=auto;html=1;" parent="1" source="me6JieNg6hZvQKu8xH20-15" target="027Nbh7sASruGqz8ZkPQ-11" edge="1">
          <mxGeometry relative="1" as="geometry">
            <mxPoint x="1360" y="-390" as="targetPoint" />
          </mxGeometry>
        </mxCell>
        <mxCell id="me6JieNg6hZvQKu8xH20-15" value="frmEditEmployee" style="rounded=0;whiteSpace=wrap;html=1;" parent="1" vertex="1">
          <mxGeometry x="1090" y="-460" width="160" height="60" as="geometry" />
        </mxCell>
        <mxCell id="me6JieNg6hZvQKu8xH20-22" style="edgeStyle=orthogonalEdgeStyle;rounded=0;orthogonalLoop=1;jettySize=auto;html=1;" parent="1" source="me6JieNg6hZvQKu8xH20-17" target="me6JieNg6hZvQKu8xH20-2" edge="1">
          <mxGeometry relative="1" as="geometry" />
        </mxCell>
        <mxCell id="me6JieNg6hZvQKu8xH20-23" style="edgeStyle=orthogonalEdgeStyle;rounded=0;orthogonalLoop=1;jettySize=auto;html=1;entryX=0.5;entryY=0;entryDx=0;entryDy=0;" parent="1" source="me6JieNg6hZvQKu8xH20-17" target="me6JieNg6hZvQKu8xH20-7" edge="1">
          <mxGeometry relative="1" as="geometry" />
        </mxCell>
        <mxCell id="me6JieNg6hZvQKu8xH20-24" style="edgeStyle=orthogonalEdgeStyle;rounded=0;orthogonalLoop=1;jettySize=auto;html=1;" parent="1" source="me6JieNg6hZvQKu8xH20-17" target="me6JieNg6hZvQKu8xH20-5" edge="1">
          <mxGeometry relative="1" as="geometry" />
        </mxCell>
        <mxCell id="me6JieNg6hZvQKu8xH20-17" value="frmMain" style="rounded=0;whiteSpace=wrap;html=1;" parent="1" vertex="1">
          <mxGeometry x="920" y="-940" width="120" height="60" as="geometry" />
        </mxCell>
        <mxCell id="me6JieNg6hZvQKu8xH20-26" value="CtrlPersonCard" style="rounded=0;whiteSpace=wrap;html=1;" parent="1" vertex="1">
          <mxGeometry x="730" y="-370" width="120" height="60" as="geometry" />
        </mxCell>
        <mxCell id="me6JieNg6hZvQKu8xH20-27" value="ctrlEmployeeCard" style="rounded=0;whiteSpace=wrap;html=1;" parent="1" vertex="1">
          <mxGeometry x="1120" y="-360" width="120" height="60" as="geometry" />
        </mxCell>
        <mxCell id="tuWmfdLi9T188f7XkB6p-11" style="edgeStyle=orthogonalEdgeStyle;rounded=0;orthogonalLoop=1;jettySize=auto;html=1;exitX=0;exitY=0.5;exitDx=0;exitDy=0;entryX=0.5;entryY=0;entryDx=0;entryDy=0;" parent="1" source="me6JieNg6hZvQKu8xH20-12" target="027Nbh7sASruGqz8ZkPQ-6" edge="1">
          <mxGeometry relative="1" as="geometry">
            <mxPoint x="603.9999999999998" y="-397.0000000000002" as="targetPoint" />
          </mxGeometry>
        </mxCell>
        <mxCell id="027Nbh7sASruGqz8ZkPQ-4" value="" style="edgeStyle=orthogonalEdgeStyle;rounded=0;orthogonalLoop=1;jettySize=auto;html=1;" edge="1" parent="1" source="027Nbh7sASruGqz8ZkPQ-6" target="027Nbh7sASruGqz8ZkPQ-7">
          <mxGeometry relative="1" as="geometry" />
        </mxCell>
        <mxCell id="027Nbh7sASruGqz8ZkPQ-5" style="edgeStyle=orthogonalEdgeStyle;rounded=0;orthogonalLoop=1;jettySize=auto;html=1;" edge="1" parent="1" source="027Nbh7sASruGqz8ZkPQ-6" target="027Nbh7sASruGqz8ZkPQ-8">
          <mxGeometry relative="1" as="geometry">
            <mxPoint x="440" y="-220" as="targetPoint" />
          </mxGeometry>
        </mxCell>
        <mxCell id="027Nbh7sASruGqz8ZkPQ-6" value="Presentation Utility&amp;nbsp;&lt;div&gt;In Presentation Layer&lt;/div&gt;" style="rounded=0;whiteSpace=wrap;html=1;" vertex="1" parent="1">
          <mxGeometry x="510" y="-370" width="150" height="60" as="geometry" />
        </mxCell>
        <mxCell id="027Nbh7sASruGqz8ZkPQ-7" value="Validation&lt;div&gt;In Shared Utilities&lt;/div&gt;" style="whiteSpace=wrap;html=1;rounded=0;" vertex="1" parent="1">
          <mxGeometry x="600" y="-260" width="120" height="60" as="geometry" />
        </mxCell>
        <mxCell id="027Nbh7sASruGqz8ZkPQ-8" value="Validation Messages" style="rounded=0;whiteSpace=wrap;html=1;" vertex="1" parent="1">
          <mxGeometry x="450" y="-260" width="120" height="60" as="geometry" />
        </mxCell>
        <mxCell id="027Nbh7sASruGqz8ZkPQ-9" value="" style="edgeStyle=orthogonalEdgeStyle;rounded=0;orthogonalLoop=1;jettySize=auto;html=1;" edge="1" parent="1" source="027Nbh7sASruGqz8ZkPQ-11" target="027Nbh7sASruGqz8ZkPQ-12">
          <mxGeometry relative="1" as="geometry" />
        </mxCell>
        <mxCell id="027Nbh7sASruGqz8ZkPQ-10" style="edgeStyle=orthogonalEdgeStyle;rounded=0;orthogonalLoop=1;jettySize=auto;html=1;" edge="1" parent="1" source="027Nbh7sASruGqz8ZkPQ-11" target="027Nbh7sASruGqz8ZkPQ-13">
          <mxGeometry relative="1" as="geometry">
            <mxPoint x="1210" y="-230" as="targetPoint" />
          </mxGeometry>
        </mxCell>
        <mxCell id="027Nbh7sASruGqz8ZkPQ-11" value="Presentation Utility&amp;nbsp;&lt;div&gt;In Presentation Layer&lt;/div&gt;" style="rounded=0;whiteSpace=wrap;html=1;" vertex="1" parent="1">
          <mxGeometry x="1280" y="-380" width="150" height="60" as="geometry" />
        </mxCell>
        <mxCell id="027Nbh7sASruGqz8ZkPQ-12" value="Validation&lt;div&gt;In Shared Utilities&lt;/div&gt;" style="whiteSpace=wrap;html=1;rounded=0;" vertex="1" parent="1">
          <mxGeometry x="1370" y="-270" width="120" height="60" as="geometry" />
        </mxCell>
        <mxCell id="027Nbh7sASruGqz8ZkPQ-13" value="Validation Messages" style="rounded=0;whiteSpace=wrap;html=1;" vertex="1" parent="1">
          <mxGeometry x="1220" y="-270" width="120" height="60" as="geometry" />
        </mxCell>
        <mxCell id="027Nbh7sASruGqz8ZkPQ-14" value="" style="edgeStyle=orthogonalEdgeStyle;rounded=0;orthogonalLoop=1;jettySize=auto;html=1;" edge="1" parent="1" source="027Nbh7sASruGqz8ZkPQ-16" target="027Nbh7sASruGqz8ZkPQ-17">
          <mxGeometry relative="1" as="geometry" />
        </mxCell>
        <mxCell id="027Nbh7sASruGqz8ZkPQ-15" style="edgeStyle=orthogonalEdgeStyle;rounded=0;orthogonalLoop=1;jettySize=auto;html=1;" edge="1" parent="1" source="027Nbh7sASruGqz8ZkPQ-16" target="027Nbh7sASruGqz8ZkPQ-18">
          <mxGeometry relative="1" as="geometry">
            <mxPoint x="40" y="-60" as="targetPoint" />
          </mxGeometry>
        </mxCell>
        <mxCell id="027Nbh7sASruGqz8ZkPQ-16" value="Presentation Utility&amp;nbsp;&lt;div&gt;In Presentation Layer&lt;/div&gt;" style="rounded=0;whiteSpace=wrap;html=1;" vertex="1" parent="1">
          <mxGeometry x="110" y="-210" width="150" height="60" as="geometry" />
        </mxCell>
        <mxCell id="027Nbh7sASruGqz8ZkPQ-17" value="Validation&lt;div&gt;In Shared Utilities&lt;/div&gt;" style="whiteSpace=wrap;html=1;rounded=0;" vertex="1" parent="1">
          <mxGeometry x="200" y="-100" width="120" height="60" as="geometry" />
        </mxCell>
        <mxCell id="027Nbh7sASruGqz8ZkPQ-18" value="Validation Messages" style="rounded=0;whiteSpace=wrap;html=1;" vertex="1" parent="1">
          <mxGeometry x="50" y="-100" width="120" height="60" as="geometry" />
        </mxCell>
      </root>
    </mxGraphModel>
  </diagram>
</mxfile>
